<?xml version="1.0" standalone="no"?>
<!DOCTYPE svg PUBLIC "-//W3C//DTD SVG 20010904//EN"
 "http://www.w3.org/TR/2001/REC-SVG-20010904/DTD/svg10.dtd">
<svg version="1.0" xmlns="http://www.w3.org/2000/svg"
 width="327.000000pt" height="444.000000pt" viewBox="0 0 327.000000 444.000000"
 preserveAspectRatio="xMidYMid meet">

<g transform="translate(0.000000,444.000000) scale(0.100000,-0.100000)"
fill="#000000" stroke="none">
<path d="M1369 4421 c-338 -59 -633 -214 -879 -460 -400 -401 -566 -954 -454
-1511 58 -285 280 -724 645 -1276 218 -330 394 -569 644 -878 66 -82 135 -168
154 -193 63 -82 147 -112 225 -79 88 37 721 863 980 1281 133 214 176 286 176
293 0 4 20 40 45 80 63 101 214 400 254 502 83 212 116 418 108 673 -8 264
-53 441 -172 682 -84 168 -174 294 -306 425 -234 233 -506 382 -824 450 -145
31 -448 37 -596 11z m531 -160 c35 -6 78 -16 95 -21 16 -5 55 -17 85 -26 253
-76 508 -250 697 -476 72 -87 184 -266 204 -326 6 -20 15 -42 20 -48 16 -20
61 -168 85 -283 20 -95 24 -141 24 -286 0 -164 -18 -326 -39 -348 -8 -8 -28 8
-165 127 -33 28 -71 60 -85 71 -14 10 -28 22 -31 25 -3 3 -28 24 -57 48 -54
44 -73 50 -95 29 -13 -13 -211 -168 -249 -196 -24 -17 -24 -8 1 65 27 77 38
262 21 359 -47 269 -250 507 -509 598 -76 27 -104 31 -222 35 -189 6 -305 -25
-445 -119 -163 -110 -277 -271 -331 -469 -21 -79 -24 -273 -5 -341 22 -80 14
-84 -58 -37 l-63 42 -77 -40 c-70 -37 -127 -70 -384 -216 -53 -30 -92 -47 -98
-41 -21 21 -50 204 -56 348 -8 215 19 385 95 590 135 364 440 684 796 836 124
53 198 74 371 108 64 12 389 7 475 -8z m835 -1676 c32 -30 62 -55 66 -55 4 0
20 -12 36 -28 15 -15 40 -35 56 -45 15 -10 27 -24 27 -32 0 -9 9 -15 23 -15
13 0 26 -9 32 -22 6 -13 22 -29 38 -36 26 -12 38 -42 17 -42 -5 0 -10 -13 -10
-29 0 -17 -11 -51 -25 -77 -14 -26 -25 -53 -25 -60 0 -8 -4 -14 -9 -14 -5 0
-18 -20 -30 -45 -19 -40 -25 -45 -54 -45 -17 0 -61 10 -96 22 -57 20 -66 27
-79 61 -8 20 -21 37 -28 37 -7 0 -18 9 -24 20 -8 16 -21 20 -58 20 -27 0 -53
5 -60 12 -7 7 -12 35 -12 64 0 100 -27 133 -100 122 -17 -3 -30 -1 -30 4 0 4
5 8 10 8 6 0 10 5 10 10 0 6 9 19 20 30 11 11 25 20 30 20 6 0 10 7 10 15 0 8
7 15 16 15 9 0 33 15 53 33 78 68 125 107 131 107 3 0 32 -25 65 -55z m-1848
-96 c32 -17 60 -34 63 -38 8 -9 43 -31 62 -37 9 -3 19 -12 22 -20 3 -8 12 -14
21 -14 8 0 15 -5 15 -10 0 -6 11 -15 25 -20 14 -5 25 -14 25 -20 0 -5 9 -10
19 -10 10 0 21 -7 25 -15 3 -8 14 -15 25 -15 10 0 21 -7 25 -15 3 -8 17 -15
31 -15 14 0 25 -5 25 -11 0 -6 25 -37 57 -68 80 -80 148 -217 119 -240 -13
-10 -143 -51 -163 -51 -7 0 -13 -4 -13 -10 0 -6 -28 -10 -64 -10 -36 0 -75 -4
-88 -9 -30 -11 -68 -87 -77 -156 -4 -30 -11 -58 -14 -62 -6 -6 -85 1 -392 35
l-60 7 3 45 c2 25 8 49 13 54 13 14 11 47 -5 78 -16 30 -7 38 44 38 48 0 60 9
60 47 0 19 7 50 16 68 11 24 15 55 12 104 l-3 71 36 0 c19 0 40 -5 47 -12 11
-11 69 -14 79 -5 7 7 -19 50 -39 65 -10 7 -18 19 -18 26 0 7 -11 24 -24 37
-54 56 -59 94 -16 141 17 18 33 43 36 56 4 12 8 22 10 22 2 0 30 -14 61 -31z
m857 -64 c3 -8 12 -15 20 -15 8 0 27 -6 43 -14 15 -8 51 -25 78 -38 28 -13 52
-26 53 -30 2 -5 13 -8 24 -8 10 0 26 -7 34 -15 9 -8 24 -15 33 -15 10 0 24 -7
31 -15 7 -8 20 -15 29 -15 10 0 36 -19 59 -42 120 -124 145 -138 251 -138 l81
0 41 -41 c22 -22 44 -50 48 -62 11 -30 -21 -57 -69 -57 -22 0 -43 -7 -51 -16
-10 -12 -25 -15 -62 -11 -27 2 -52 9 -56 14 -3 5 -27 18 -53 29 -27 10 -48 22
-48 25 0 16 -151 79 -190 79 -25 0 -43 5 -46 14 -3 7 -24 16 -47 19 -67 9
-117 34 -117 58 0 28 -18 59 -34 59 -8 0 -19 7 -26 15 -7 8 -21 15 -31 15 -10
0 -34 14 -52 30 -19 17 -39 30 -45 30 -5 0 -15 7 -22 15 -7 8 -20 15 -30 15
-10 0 -20 9 -23 20 -4 16 3 25 34 40 21 11 39 25 39 30 0 6 11 10 24 10 13 0
29 7 36 15 7 8 18 15 25 15 7 0 15 -7 19 -15z"/>
</g>
</svg>
